<svg width="86" height="86" viewBox="0 0 86 86" fill="none" xmlns="http://www.w3.org/2000/svg">
<path d="M3.00396 56.1831C2.98903 55.9746 3.01642 55.7653 3.08447 55.5677C3.15253 55.3701 3.25984 55.1883 3.39996 55.0332C3.54008 54.8782 3.71012 54.753 3.89984 54.6654C4.08956 54.5777 4.29505 54.5293 4.50396 54.5231C6.42396 54.5231 6.50396 57.6831 4.50396 57.6831C4.10854 57.6754 3.73145 57.5149 3.45179 57.2353C3.17214 56.9556 3.01164 56.5785 3.00396 56.1831ZM82.784 57.5231C82.7484 58.2987 82.5459 59.0576 82.1904 59.7479C81.8349 60.4382 81.3347 61.0437 80.724 61.5231L63.624 74.7631C60.5311 77.1239 56.7448 78.3965 52.854 78.3831C52.024 78.3828 51.1952 78.3227 50.374 78.2031L22.504 74.2031C22.3841 75.0337 21.9697 75.7936 21.3365 76.3443C20.7032 76.8949 19.8932 77.1997 19.054 77.2031H4.50396C4.10613 77.2031 3.7246 77.0451 3.4433 76.7638C3.16199 76.4825 3.00396 76.1009 3.00396 75.7031V61.2231C3.00396 60.8253 3.16199 60.4437 3.4433 60.1624C3.7246 59.8811 4.10613 59.7231 4.50396 59.7231C4.90178 59.7231 5.28331 59.8811 5.56462 60.1624C5.84592 60.4437 6.00396 60.8253 6.00396 61.2231V74.2231H19.054C19.1866 74.2231 19.3137 74.1704 19.4075 74.0767C19.5013 73.9829 19.554 73.8557 19.554 73.7231V49.3831C19.554 49.2505 19.5013 49.1233 19.4075 49.0295C19.3137 48.9358 19.1866 48.8831 19.054 48.8831H6.00396V51.0331C6.00396 51.4309 5.84592 51.8125 5.56462 52.0938C5.28331 52.3751 4.90178 52.5331 4.50396 52.5331C4.10613 52.5331 3.7246 52.3751 3.4433 52.0938C3.16199 51.8125 3.00396 51.4309 3.00396 51.0331V47.3831C3.00396 46.9853 3.16199 46.6037 3.4433 46.3224C3.7246 46.0411 4.10613 45.8831 4.50396 45.8831H19.054C19.9822 45.8831 20.8725 46.2519 21.5288 46.9082C22.1852 47.5646 22.554 48.4548 22.554 49.3831V49.5731L28.554 49.0331C30.0996 48.8053 31.6621 48.7116 33.224 48.7531C34.6685 48.8763 36.0784 49.2627 37.384 49.8931C38.5504 50.4416 39.825 50.7218 41.114 50.7131C43.664 50.7131 46.114 50.7131 47.924 52.7131C48.501 53.3505 48.9386 54.1013 49.209 54.9175C49.4793 55.7337 49.5764 56.5973 49.494 57.4531C49.4096 58.3313 49.1352 59.1807 48.6897 59.9423C48.2441 60.7038 47.6382 61.3592 46.914 61.8631L53.664 63.2331C54.236 63.3467 54.8298 63.2583 55.344 62.9831L74.684 52.5231C75.7026 51.9513 76.8768 51.7187 78.0364 51.8589C79.1961 51.9992 80.281 52.505 81.134 53.3031C81.6953 53.8451 82.1333 54.5017 82.418 55.2282C82.7028 55.9547 82.8276 56.734 82.784 57.5131V57.5231ZM79.784 57.3631C79.803 57.0117 79.7448 56.6604 79.6135 56.3339C79.4822 56.0073 79.281 55.7135 79.024 55.4731C78.6207 55.1107 78.1125 54.8862 77.573 54.8322C77.0336 54.7783 76.491 54.8977 76.024 55.1731L56.744 65.6231C55.6097 66.2346 54.2969 66.4292 53.034 66.1731L37.514 63.0231C37.1161 62.9833 36.7504 62.7871 36.4972 62.4777C36.2441 62.1683 36.1242 61.7709 36.164 61.3731C36.2037 60.9753 36.3999 60.6096 36.7094 60.3564C37.0188 60.1032 37.4161 59.9833 37.814 60.0231H43.144C43.9524 60.043 44.7399 59.7644 45.3559 59.2405C45.972 58.7166 46.3736 57.9842 46.484 57.1831C46.5272 56.7445 46.4782 56.3017 46.3401 55.8832C46.2021 55.4646 45.978 55.0796 45.6823 54.7528C45.3866 54.426 45.0258 54.1647 44.6231 53.9857C44.2204 53.8066 43.7847 53.7138 43.344 53.7131H41.084C39.3549 53.7148 37.6471 53.3322 36.084 52.5931C34.8975 52.0236 33.6 51.7232 32.284 51.7131L22.584 52.5831V71.1931L50.804 75.2831C52.7376 75.5613 54.7073 75.4488 56.5967 74.9524C58.4861 74.456 60.2568 73.5858 61.804 72.3931L78.914 59.1531C79.182 58.939 79.4016 58.6706 79.5585 58.3655C79.7153 58.0605 79.8058 57.7256 79.824 57.3831L79.784 57.3631ZM45.914 44.6131C46.2425 45.0025 46.6521 45.3154 47.1141 45.5301C47.5762 45.7448 48.0795 45.856 48.589 45.856C49.0984 45.856 49.6018 45.7448 50.0638 45.5301C50.5258 45.3154 50.9354 45.0025 51.264 44.6131L64.704 28.6831C66.8441 26.4882 68.0713 23.5629 68.1377 20.498C68.2041 17.4332 67.1048 14.4574 65.0618 12.1719C63.0188 9.88638 60.1844 8.4615 57.1314 8.18515C54.0783 7.90879 51.0342 8.80157 48.614 10.6831C46.8594 9.25019 44.7323 8.34786 42.4826 8.08215C40.2329 7.81644 37.9541 8.19838 35.914 9.1831C35.7274 9.26358 35.5592 9.3811 35.4194 9.52856C35.2797 9.67601 35.1713 9.85031 35.101 10.0409C35.0306 10.2315 34.9997 10.4344 35.0101 10.6373C35.0205 10.8401 35.072 11.0388 35.1615 11.2212C35.251 11.4036 35.3766 11.5659 35.5307 11.6982C35.6848 11.8306 35.8642 11.9303 36.058 11.9913C36.2518 12.0522 36.456 12.0732 36.6581 12.0529C36.8603 12.0326 37.0562 11.9714 37.234 11.8731C38.9266 11.081 40.8239 10.8354 42.6624 11.1705C44.501 11.5056 46.1896 12.4047 47.494 13.7431C47.7748 14.021 48.1539 14.1768 48.549 14.1768C48.944 14.1768 49.3231 14.021 49.604 13.7431C51.0065 12.3129 52.8418 11.3854 54.8251 11.1044C56.8085 10.8235 58.8291 11.2049 60.5737 12.1894C62.3182 13.1739 63.6892 14.7066 64.4739 16.5496C65.2587 18.3927 65.4133 20.4432 64.914 22.3831C64.194 25.3831 61.914 27.6431 59.914 29.8131C57.544 32.3831 55.354 35.1231 53.104 37.8131L49.104 42.5431C48.874 42.8131 48.514 42.9831 48.244 42.6631L46.654 40.7731C43.494 36.8231 40.134 33.0531 36.884 29.1731C35.504 27.5331 33.774 25.9331 32.884 23.9631C31.9898 22.0028 31.8128 19.7906 32.384 17.7131C32.4432 17.5213 32.4634 17.3196 32.4433 17.1199C32.4231 16.9202 32.3631 16.7265 32.2668 16.5504C32.1705 16.3743 32.0398 16.2194 31.8825 16.0947C31.7252 15.97 31.5444 15.8782 31.351 15.8246C31.1575 15.7711 30.9553 15.7569 30.7563 15.7829C30.5573 15.809 30.3655 15.8747 30.1923 15.9762C30.0191 16.0777 29.8681 16.2129 29.7481 16.3738C29.6282 16.5348 29.5418 16.7182 29.494 16.9131C28.9229 18.9707 28.9051 21.1426 29.4424 23.2093C29.9797 25.276 31.053 27.1642 32.554 28.6831L45.914 44.6131ZM32.914 14.8831C33.2248 14.8876 33.5294 14.796 33.7862 14.6208C34.0431 14.4457 34.2396 14.1956 34.349 13.9046C34.4584 13.6136 34.4753 13.296 34.3974 12.9951C34.3196 12.6941 34.1507 12.4245 33.914 12.2231C33.5979 11.9744 33.197 11.8592 32.7971 11.9022C32.3972 11.9452 32.03 12.1429 31.774 12.4531C31.5971 12.6706 31.4852 12.9335 31.451 13.2118C31.4169 13.49 31.462 13.7722 31.581 14.026C31.7001 14.2798 31.8883 14.4949 32.1241 14.6465C32.3599 14.7981 32.6337 14.8801 32.914 14.8831ZM48.544 18.8831C48.1461 18.8831 47.7646 19.0411 47.4833 19.3224C47.202 19.6037 47.044 19.9853 47.044 20.3831V24.3831H43.044C42.6461 24.3831 42.2646 24.5411 41.9833 24.8224C41.702 25.1037 41.544 25.4853 41.544 25.8831C41.544 26.2809 41.702 26.6625 41.9833 26.9438C42.2646 27.2251 42.6461 27.3831 43.044 27.3831H47.044V31.3831C47.044 31.7809 47.202 32.1625 47.4833 32.4438C47.7646 32.7251 48.1461 32.8831 48.544 32.8831C48.9418 32.8831 49.3233 32.7251 49.6046 32.4438C49.8859 32.1625 50.044 31.7809 50.044 31.3831V27.3831H54.044C54.4418 27.3831 54.8233 27.2251 55.1046 26.9438C55.3859 26.6625 55.544 26.2809 55.544 25.8831C55.544 25.4853 55.3859 25.1037 55.1046 24.8224C54.8233 24.5411 54.4418 24.3831 54.044 24.3831H50.044V20.3831C50.0362 19.9939 49.8775 19.623 49.6013 19.3487C49.3251 19.0744 48.9532 18.9182 48.564 18.9131L48.544 18.8831Z" fill="#333333"/>
</svg>
