<svg width="86" height="86" viewBox="0 0 86 86" fill="none" xmlns="http://www.w3.org/2000/svg">
<path d="M49.5525 36.1233C49.0182 36.6563 49.0182 37.5214 49.5525 38.0557C50.0869 38.5901 50.9506 38.5901 51.485 38.0557L54.5162 35.0245C57.3767 32.1641 57.3767 27.5092 54.5162 24.6502C51.6572 21.7911 47.0037 21.7884 44.142 24.6502L42.9994 25.7941L41.8555 24.6502C38.9951 21.7898 34.3417 21.7898 31.4812 24.6502C28.6208 27.5092 28.6208 32.1641 31.4812 35.0245L42.0332 45.5764C42.2901 45.8334 42.6373 45.9769 42.9994 45.9769C43.3616 45.9769 43.7101 45.8334 43.9657 45.5764L47.6201 41.922C48.1545 41.3876 48.1545 40.5225 47.6201 39.9895C47.0857 39.4552 46.222 39.4552 45.6876 39.9895L42.9994 42.6778L33.4137 33.092C31.6206 31.2976 31.6193 28.3771 33.4137 26.5826C35.2081 24.7896 38.1273 24.7896 39.9231 26.5826L42.0332 28.6928C42.5676 29.2271 43.4313 29.2271 43.9657 28.6928L46.0758 26.5826C47.8702 24.7896 50.7907 24.7896 52.5852 26.5826C54.3796 28.3771 54.3782 31.2962 52.5852 33.092L49.5525 36.1233Z" fill="#333333"/>
<path d="M71.3377 62.9047L67.7789 66.4635C65.2356 69.0068 61.8695 70.6632 58.3025 71.1292L38.4231 73.7218C34.5022 74.2329 31.1553 76.8309 29.6861 80.5031L29.0356 82.1281C28.7554 82.8292 29.0957 83.6246 29.7982 83.9047C29.9649 83.9703 30.1371 84.0018 30.3052 84.0018C30.8478 84.0018 31.3603 83.6765 31.5748 83.1421L32.224 81.5172C33.3255 78.7634 35.8374 76.8145 38.7771 76.4318L58.6565 73.8393C62.818 73.2967 66.743 71.3629 69.7114 68.3959L73.2702 64.8371C73.8045 64.3028 73.8045 63.439 73.2702 62.9047C72.7358 62.3703 71.8707 62.3703 71.3377 62.9047Z" fill="#333333"/>
<path d="M82.1001 48.4971L82.9105 47.4666C84.3346 45.6544 84.3633 43.1002 82.9802 41.2565C82.1397 40.1359 80.8592 39.4047 79.4679 39.2489C78.0808 39.0972 76.6677 39.525 75.5989 40.4324L70.94 44.393C70.8566 44.2563 70.776 44.1183 70.6803 43.9912C69.8398 42.8706 68.5593 42.1394 67.168 41.9836C66.3822 41.8961 65.5991 42.0137 64.8679 42.2788V25.6288L68.2381 27.7567C68.4595 27.8975 68.7123 27.9685 68.9665 27.9685C69.1934 27.9685 69.4203 27.9125 69.6266 27.7991C70.0626 27.5585 70.3332 27.0993 70.3332 26.6019V19.7686C70.3332 19.2998 70.0927 18.8639 69.6963 18.6124L59.5093 12.1782C58.8711 11.7764 58.0278 11.9663 57.6233 12.6046C57.2201 13.2428 57.4115 14.0874 58.0497 14.4906L67.5999 20.5216V24.1214L44.3667 9.4476V5.84782L53.4263 11.57C54.0645 11.9718 54.9077 11.7818 55.3123 11.1436C55.7154 10.5054 55.5241 9.66079 54.8859 9.25763L43.7299 2.21115C43.2843 1.92962 42.7158 1.92962 42.2703 2.21115L16.3038 18.611C15.9075 18.8639 15.6669 19.2998 15.6669 19.7686V26.6019C15.6669 27.0993 15.9375 27.5585 16.3735 27.7991C16.8081 28.0382 17.3397 28.0232 17.7634 27.7581L21.1336 25.6288V53.868C21.1336 54.6224 21.7458 55.2347 22.5002 55.2347C23.2546 55.2347 23.8669 54.6224 23.8669 53.868V23.9027L43.0001 11.8187L62.1333 23.9027V59.4016H53.0764C53.4468 58.6199 53.6026 57.7425 53.5151 56.8638C53.2732 54.4543 51.0975 52.5683 48.561 52.5683H39.3757C34.8206 52.5683 31.0787 53.4266 27.6006 55.2689L24.7388 56.7831C14.4082 62.2525 6.36683 71.256 2.09602 82.136C1.81996 82.8384 2.16572 83.6311 2.86819 83.9072C3.03082 83.9714 3.20028 84.0015 3.36702 84.0015C3.91231 84.0015 4.42754 83.6721 4.63937 83.1336C8.67238 72.8618 16.2642 64.3626 26.018 59.198L28.8798 57.6837C31.9493 56.0588 35.2839 55.3017 39.3757 55.3017H48.561C49.7104 55.3017 50.693 56.1066 50.7955 57.1357C50.8542 57.7275 50.6711 58.2919 50.2775 58.7265C49.8894 59.1556 49.3345 59.4016 48.7564 59.4016H37.1398C36.3854 59.4016 35.7732 60.0139 35.7732 60.7683C35.7732 61.5227 36.3854 62.1349 37.1398 62.1349H63.1063C63.4261 62.1349 63.735 62.0229 63.981 61.8179L77.3728 50.6578C78.2735 49.9102 79.5909 49.8829 80.3713 50.6004C80.8264 51.0186 81.0847 51.5816 81.0984 52.1857C81.1107 52.7897 80.8824 53.3569 80.456 53.7847L75.2012 59.0381C74.6669 59.5711 74.6669 60.4362 75.2012 60.9706C75.7356 61.5049 76.5993 61.5049 77.1337 60.9706L82.3885 55.7171C83.3328 54.7728 83.859 53.4635 83.8303 52.1269C83.8016 50.7712 83.229 49.5139 82.219 48.5873C82.1821 48.5531 82.1384 48.5299 82.1001 48.4971ZM18.4002 20.5216L41.6334 5.84782V9.4476L18.4002 24.1228V20.5216ZM65.0688 45.2458C65.5704 44.8194 66.2086 44.6226 66.8633 44.6978C67.5179 44.7716 68.0974 45.1023 68.4937 45.6298C68.6249 45.8034 68.7274 45.9988 68.8039 46.2066L64.8666 49.5521V45.418L65.0688 45.2458ZM75.6235 48.5586L64.8666 57.5225V53.1382L77.3688 42.5125C77.8703 42.0861 78.5072 41.8907 79.1632 41.9645C79.8178 42.0383 80.3973 42.369 80.7936 42.8965C81.4346 43.752 81.4223 44.9383 80.7622 45.7774L79.4953 47.3887C78.1559 47.2452 76.7483 47.6224 75.6235 48.5586Z" fill="#333333"/>
</svg>
