<svg width="24" height="24" viewBox="0 0 24 24" fill="none" xmlns="http://www.w3.org/2000/svg">
<g clip-path="url(#clip0_0_45)">
<path d="M23.8042 6.65627C23.7354 6.55857 23.6442 6.47883 23.5381 6.42376C23.4321 6.36868 23.3144 6.3399 23.1949 6.33982H7.27762L6.07274 2.18482C5.60024 0.548695 4.47747 0.37207 4.01697 0.37207H0.804344C0.39257 0.37207 0.0595703 0.705445 0.0595703 1.11682C0.0595703 1.5282 0.392945 1.86155 0.80432 1.86155H4.01657C4.1182 1.86155 4.42832 1.86155 4.63984 2.59242L8.78472 17.8253C8.87472 18.1467 9.16759 18.3687 9.5017 18.3687H19.6259C19.9402 18.3687 20.2207 18.1718 20.3268 17.8759L23.8953 7.33652C23.9775 7.10815 23.9433 6.8539 23.8042 6.65627H23.8042ZM19.1018 16.8796H10.067L7.69623 7.8297H22.136L19.1018 16.8796ZM17.6247 19.8781C16.589 19.8781 15.7497 20.7173 15.7497 21.7531C15.7497 22.7888 16.589 23.6281 17.6247 23.6281C18.6605 23.6281 19.4997 22.7888 19.4997 21.7531C19.4997 20.7173 18.6605 19.8781 17.6247 19.8781ZM10.8747 19.8781C9.83898 19.8781 8.99973 20.7173 8.99973 21.7531C8.99973 22.7888 9.83898 23.6281 10.8747 23.6281C11.9105 23.6281 12.7497 22.7888 12.7497 21.7531C12.7497 20.7173 11.9105 19.8781 10.8747 19.8781Z" fill="#127BF1"/>
</g>
<defs>
<clipPath id="clip0_0_45">
<rect width="24" height="24" fill="white"/>
</clipPath>
</defs>
</svg>
