<svg width="60" height="60" viewBox="0 0 60 60" fill="none" xmlns="http://www.w3.org/2000/svg">
<path fill-rule="evenodd" clip-rule="evenodd" d="M30.0015 7.00001H30.0394C33.6843 7.00972 37.3189 7.88372 40.5631 9.56681C42.9787 10.8195 45.1817 12.5205 46.9998 14.5123C48.9355 16.6319 50.4673 19.0949 51.507 21.8319C52.4817 24.3998 52.9811 27.1628 52.9954 29.9152C53.0015 29.9826 53.0015 30.0501 52.9954 30.1176C52.9903 31.6872 52.8272 33.2517 52.5052 34.7728C51.8229 37.9943 50.4218 41.0911 48.4494 43.7315C45.9837 47.0323 42.6107 49.6665 38.8227 51.2448C36.4296 52.242 33.881 52.8216 31.2927 52.9642C30.8699 52.9877 30.4467 52.9995 30.0235 53C30.0158 53 30.0087 53 30.001 53C29.9934 53 29.9852 53 29.9775 52.9995C26.8095 52.9959 23.6538 52.3458 20.7285 51.0516C17.1854 49.4841 14.0179 46.9622 11.7178 43.9508C8.71537 40.0193 7.00409 35.1101 7 30.0118C7 30.0077 7 30.0041 7 30C7 29.9964 7 29.9934 7 29.9898C7 29.8574 7.00102 29.7245 7.00358 29.5921C7.07156 25.7154 8.16947 21.8555 9.99831 18.6447C11.7387 15.5877 14.1799 12.9432 17.1143 10.9509C19.9348 9.03576 23.2157 7.77076 26.4665 7.27039C27.634 7.09099 28.8101 6.99899 30.0005 7.00001H30.0015ZM46.1789 42.8458H40.7042C39.1927 45.572 37.1983 48.0351 34.9064 50.0724C35.5376 49.919 36.1607 49.736 36.7741 49.5229C40.3142 48.2932 43.45 46.1174 45.863 43.2332C45.9699 43.1054 46.0752 42.9761 46.1789 42.8458ZM19.2902 42.8458H13.8262C14.4697 43.6564 15.173 44.4184 15.9295 45.1222C17.9122 46.9674 20.2348 48.4123 22.7818 49.3624C23.5296 49.641 24.2906 49.8746 25.0604 50.0632C23.2566 48.47 21.6547 46.6234 20.3063 44.5478C19.947 43.9952 19.6076 43.4254 19.2902 42.8458ZM28.831 42.8458H21.9972C23.6323 45.4821 25.7632 47.7994 28.2749 49.6553C28.4339 49.7728 28.5939 49.8878 28.7554 50.0018L28.831 50.0545V42.8458ZM37.9931 42.8458H31.171V50.0545C31.2906 49.9706 31.4097 49.8863 31.5283 49.8004C31.5283 49.8004 31.7113 49.6681 31.8452 49.5674C34.2787 47.7453 36.3733 45.4545 37.9931 42.8458ZM16.0384 31.1699H9.37422C9.4744 32.9522 9.80204 34.7201 10.3556 36.4124C10.8228 37.8399 11.4494 39.2143 12.2151 40.5059H18.1509C18.0083 40.1737 17.8739 39.842 17.7481 39.5108C16.7356 36.8525 16.1626 34.024 16.0384 31.1699ZM41.6222 31.1699H31.171V40.5059H39.2761C40.0888 38.8116 40.7108 37.0155 41.111 35.1505C41.3927 33.839 41.5624 32.5065 41.6222 31.1699ZM50.6283 31.1699H43.9652C43.8308 34.2315 43.1786 37.2736 42.0127 40.1226C41.96 40.2508 41.9063 40.3786 41.8517 40.5059H47.79C49.0842 38.3163 49.9853 35.8722 50.3988 33.3059C50.5123 32.5985 50.589 31.8855 50.6283 31.1699ZM20.7178 40.5059H28.831V31.1699H18.3911C18.5153 33.8492 19.0699 36.5105 20.0615 39.0042C20.2634 39.5123 20.4827 40.0132 20.7178 40.5059ZM18.154 19.4941H12.2253C11.269 21.1011 10.5258 22.8378 10.0392 24.6538C9.67374 26.0179 9.45242 27.4199 9.37371 28.8301H16.0374C16.137 26.5004 16.5362 24.179 17.2421 21.9444C17.5043 21.1123 17.8095 20.2945 18.154 19.4941ZM39.2781 19.4941H31.171V28.8301H41.615C41.453 25.6039 40.6607 22.4121 39.2781 19.4941ZM47.791 19.4941H41.845C42.3061 20.5639 42.6971 21.6653 43.0124 22.7918C43.5624 24.7591 43.8798 26.7892 43.9667 28.8301H50.6263C50.5103 26.7928 50.0978 24.7744 49.397 22.87C48.9666 21.6996 48.4284 20.5695 47.791 19.4941ZM18.3927 28.8301H28.831V19.4941H20.7183C20.5609 19.8223 20.4116 20.1535 20.2701 20.4877C19.1563 23.1169 18.5281 25.9592 18.3927 28.8301ZM25.0742 9.94247C22.8523 10.4883 20.7163 11.3991 18.7908 12.6463C16.9155 13.8612 15.24 15.394 13.841 17.1543H19.3009C20.7965 14.4469 22.7598 11.9966 25.0742 9.94247ZM31.171 9.94554V17.1543H38.0049C36.2721 14.3595 33.9613 11.9149 31.287 10.0268C31.2482 9.99972 31.2099 9.97263 31.171 9.94554ZM34.914 9.92816C37.2269 11.9793 39.1953 14.4331 40.698 17.1543H46.1784C44.7319 15.3357 42.97 13.7451 40.9485 12.4791C39.0905 11.3158 37.0531 10.4505 34.914 9.92816ZM28.831 17.1543V9.94554C28.8193 9.95372 28.8075 9.9619 28.7953 9.97059C26.0684 11.8811 23.7463 14.3539 22.0028 17.1543H28.831Z" fill="#333333"/>
</svg>
