<svg width="60" height="60" viewBox="0 0 60 60" fill="none" xmlns="http://www.w3.org/2000/svg">
<g clip-path="url(#clip0_0_104)">
<path d="M41.3086 12.1525C40.7001 12.1525 40.1273 12.2956 39.6118 12.5391V8.90924C39.6118 6.76141 37.8649 5.01451 35.7171 5.01451C35.1086 5.01451 34.5358 5.1577 34.0203 5.40112V5.0002C34.0203 2.85237 32.2734 1.10547 30.1256 1.10547C27.9778 1.10547 26.2309 2.85237 26.2309 5.0002V5.40112C25.7154 5.15054 25.1426 5.01451 24.5341 5.01451C22.3863 5.01451 20.6394 6.76141 20.6394 8.90924V20.0493C20.1024 19.7772 19.4939 19.6269 18.8567 19.6269C16.7518 19.6269 15.0479 21.338 15.0479 23.4357V34.3037C15.0479 37.9335 16.6158 41.3701 19.3578 43.747L20.6394 44.8567V60.5645C20.6394 61.173 21.1334 61.667 21.7419 61.667C22.3505 61.667 22.8445 61.173 22.8445 60.5645V44.3556C22.8445 44.0334 22.7084 43.7327 22.465 43.5251L20.804 42.086C18.5488 40.1243 17.253 37.2892 17.253 34.3037V23.4357C17.253 22.5479 17.9761 21.8248 18.8638 21.8248C19.8447 21.8248 20.6465 22.6267 20.6465 23.6075V29.1489C20.6465 29.7575 21.1405 30.2515 21.7491 30.2515C22.3576 30.2515 22.8516 29.7575 22.8516 29.1489V8.90924C22.8516 7.97136 23.6105 7.21246 24.5484 7.21246C25.4863 7.21246 26.2452 7.97136 26.2452 8.90924V22.326C26.2452 22.4406 26.2595 22.5479 26.2953 22.6553C26.4313 23.1064 26.8537 23.4286 27.3477 23.4286C27.8417 23.4286 28.257 23.1064 28.4002 22.6553C28.4288 22.5551 28.4503 22.4406 28.4503 22.326V5.0002C28.4503 4.06231 29.2092 3.30341 30.1471 3.30341C31.085 3.30341 31.8439 4.06231 31.8439 5.0002V22.9918C31.8439 23.6004 32.3379 24.0944 32.9464 24.0944C33.555 24.0944 34.049 23.6004 34.049 22.9918V8.90924C34.049 7.97136 34.8079 7.21246 35.7457 7.21246C36.6836 7.21246 37.4425 7.97136 37.4425 8.90924V23.808C37.4425 24.4166 37.9365 24.9106 38.5451 24.9106C39.1536 24.9106 39.6476 24.4166 39.6476 23.808V16.0472C39.6476 15.1093 40.4065 14.3504 41.3444 14.3504C42.2823 14.3504 43.0412 15.1093 43.0412 16.0472V34.2608C43.0412 38.134 41.7024 41.9213 39.261 44.9283C39.1035 45.1216 39.0176 45.3722 39.0176 45.6228V60.5788C39.0176 61.1874 39.5116 61.6814 40.1202 61.6814C40.7287 61.6814 41.2227 61.1874 41.2227 60.5788V46.0022C43.8216 42.6588 45.2463 38.4991 45.2463 34.2608V16.0472C45.2463 13.8994 43.4994 12.1525 41.3516 12.1525H41.3086Z" fill="#333333"/>
<path d="M27.4193 31.9489C28.0636 31.9489 28.5934 31.4262 28.5934 30.7747C28.5934 30.1232 28.0708 29.6006 27.4193 29.6006C26.7678 29.6006 26.2451 30.1232 26.2451 30.7747C26.2451 31.4262 26.7678 31.9489 27.4193 31.9489Z" fill="#333333"/>
<path d="M34.8441 50.9557C34.1997 50.9557 33.6699 51.4784 33.6699 52.1299C33.6699 52.7814 34.1926 53.304 34.8441 53.304C35.4956 53.304 36.0182 52.7814 36.0182 52.1299C36.0182 51.4784 35.4956 50.9557 34.8441 50.9557Z" fill="#333333"/>
<path d="M29.89 54.2062C29.2456 54.2062 28.7158 54.7288 28.7158 55.3804C28.7158 56.0319 29.2385 56.5545 29.89 56.5545C30.5415 56.5545 31.0641 56.0319 31.0641 55.3804C31.0641 54.7288 30.5415 54.2062 29.89 54.2062Z" fill="#333333"/>
<path d="M27.5628 48.7444C26.9185 48.7444 26.3887 49.2671 26.3887 49.9186C26.3887 50.5701 26.9113 51.0927 27.5628 51.0927C28.2143 51.0927 28.737 50.5701 28.737 49.9186C28.737 49.2671 28.2143 48.7444 27.5628 48.7444Z" fill="#333333"/>
<path d="M39.612 38.5567C39.612 37.9123 39.0893 37.3825 38.4378 37.3825C37.7863 37.3825 37.2637 37.9051 37.2637 38.5567C37.2637 39.2082 37.7863 39.7308 38.4378 39.7308C39.0893 39.7308 39.612 39.2082 39.612 38.5567Z" fill="#333333"/>
<path d="M32.4603 42.0502C31.8159 42.0502 31.2861 42.5728 31.2861 43.2243C31.2861 43.8758 31.8088 44.3985 32.4603 44.3985C33.1118 44.3985 33.6344 43.8758 33.6344 43.2243C33.6344 42.5728 33.1118 42.0502 32.4603 42.0502Z" fill="#333333"/>
<path d="M26.7682 39.0496C26.7682 38.4052 26.2456 37.8754 25.5941 37.8754C24.9426 37.8754 24.4199 38.3981 24.4199 39.0496C24.4199 39.7011 24.9426 40.2237 25.5941 40.2237C26.2456 40.2237 26.7682 39.7011 26.7682 39.0496Z" fill="#333333"/>
<path d="M32.9749 26.521C32.3306 26.521 31.8008 27.0436 31.8008 27.6951C31.8008 28.3466 32.3234 28.8693 32.9749 28.8693C33.6264 28.8693 34.1491 28.3466 34.1491 27.6951C34.1491 27.0436 33.6264 26.521 32.9749 26.521Z" fill="#333333"/>
<path d="M32.2305 34.9985C32.2305 35.6428 32.7531 36.1726 33.4046 36.1726C34.0561 36.1726 34.5788 35.65 34.5788 34.9985C34.5788 34.3469 34.0561 33.8243 33.4046 33.8243C32.7531 33.8243 32.2305 34.3469 32.2305 34.9985Z" fill="#333333"/>
<path d="M9.57115 25.648C9.14158 25.2184 8.44712 25.2184 8.01755 25.648C6.48544 27.1801 5.64062 29.2205 5.64062 31.3898C5.64062 33.5591 6.48544 35.5996 8.01755 37.1317C8.23234 37.3465 8.51155 37.4539 8.79793 37.4539C9.08431 37.4539 9.36353 37.3465 9.57831 37.1317C10.0079 36.7021 10.0079 36.0077 9.57831 35.5781C8.46144 34.4612 7.84573 32.9721 7.84573 31.3898C7.84573 29.8076 8.46144 28.3184 9.57831 27.2016C10.0079 26.772 10.0079 26.0775 9.57831 25.648H9.57115Z" fill="#333333"/>
<path d="M51.411 25.6479C50.9815 26.0774 50.9815 26.7719 51.411 27.2015C52.5279 28.3183 53.1436 29.8075 53.1436 31.3897C53.1436 32.9719 52.5279 34.4611 51.411 35.578C50.9815 36.0075 50.9815 36.702 51.411 37.1316C51.6258 37.3464 51.905 37.4537 52.1914 37.4537C52.4778 37.4537 52.757 37.3464 52.9718 37.1316C54.5039 35.5995 55.3487 33.559 55.3487 31.3897C55.3487 29.2204 54.5039 27.18 52.9718 25.6479C52.5422 25.2183 51.8478 25.2183 51.4182 25.6479H51.411Z" fill="#333333"/>
</g>
<defs>
<clipPath id="clip0_0_104">
<rect width="60" height="60" fill="white"/>
</clipPath>
</defs>
</svg>
