<svg width="29" height="29" viewBox="0 0 29 29" fill="none" xmlns="http://www.w3.org/2000/svg">
<g clip-path="url(#clip0_0_1681)">
<path d="M12.4654 12.4639C13.5095 11.4198 14.915 10.817 16.3911 10.7801C17.8673 10.7433 19.3011 11.2752 20.396 12.2659L20.6044 12.4639L23.8595 15.7202C24.9197 16.7822 25.5231 18.2163 25.5412 19.7168C25.5592 21.2173 24.9905 22.6655 23.9563 23.7528C22.922 24.84 21.504 25.4803 20.0044 25.5372C18.5049 25.594 17.0425 25.063 15.9288 24.0572L15.7217 23.8592L13.2791 21.4167C13.0727 21.2095 12.9529 20.9316 12.9439 20.6393C12.935 20.347 13.0377 20.0622 13.2311 19.8429C13.4245 19.6235 13.6942 19.486 13.9853 19.4583C14.2764 19.4306 14.5672 19.5147 14.7985 19.6936L14.9067 19.7891L17.3492 22.2316C17.9824 22.8685 18.8387 23.2336 19.7366 23.2496C20.6345 23.2655 21.5033 22.9311 22.1587 22.3172C22.8141 21.7032 23.2046 20.8581 23.2473 19.9611C23.2899 19.0641 22.9815 18.1857 22.3873 17.5123L22.2319 17.3477L18.9768 14.0914C18.6561 13.7707 18.2754 13.5163 17.8565 13.3428C17.4375 13.1692 16.9884 13.0798 16.5349 13.0798C16.0813 13.0798 15.6323 13.1692 15.2133 13.3428C14.7943 13.5163 14.4136 13.7707 14.0929 14.0914C13.8758 14.3011 13.5851 14.4171 13.2833 14.4145C12.9815 14.4119 12.6928 14.2908 12.4794 14.0774C12.266 13.864 12.1449 13.5753 12.1423 13.2735C12.1397 12.9717 12.2557 12.681 12.4654 12.4639ZM5.14013 5.13865C6.18427 4.09457 7.58977 3.49177 9.0659 3.45492C10.542 3.41807 11.9759 3.94999 13.0708 4.94067L13.2791 5.13865L15.7205 7.58231C15.9269 7.78945 16.0468 8.0674 16.0557 8.3597C16.0646 8.65201 15.962 8.93675 15.7686 9.1561C15.5751 9.37545 15.3055 9.51296 15.0144 9.54069C14.7232 9.56842 14.4325 9.4843 14.2011 9.30542L14.0929 9.20988L11.6516 6.76852C11.0173 6.13839 10.1634 5.77883 9.26941 5.76547C8.37545 5.75212 7.51116 6.08601 6.85836 6.69691C6.20556 7.30781 5.81515 8.14809 5.76926 9.04097C5.72337 9.93386 6.02558 10.8097 6.61231 11.4843L6.7677 11.6501L10.024 14.9064C10.6716 15.5537 11.5497 15.9174 12.4654 15.9174C13.381 15.9174 14.2592 15.5537 14.9067 14.9064C15.0136 14.7994 15.1405 14.7146 15.2801 14.6567C15.4198 14.5988 15.5695 14.5689 15.7207 14.5689C15.8719 14.5688 16.0216 14.5986 16.1613 14.6564C16.301 14.7142 16.4279 14.7989 16.5349 14.9058C16.6418 15.0127 16.7267 15.1396 16.7846 15.2792C16.8425 15.4189 16.8723 15.5686 16.8723 15.7198C16.8724 15.871 16.8427 16.0207 16.7849 16.1604C16.7271 16.3001 16.6423 16.427 16.5354 16.534C15.4913 17.578 14.0858 18.1808 12.6097 18.2177C11.1335 18.2545 9.6997 17.7226 8.60476 16.7319L8.39527 16.534L5.14013 13.2777C4.06119 12.1984 3.45508 10.7348 3.45508 9.20873C3.45508 7.68265 4.06119 6.21791 5.14013 5.13865Z" fill="white"/>
</g>
<defs>
<clipPath id="clip0_0_1681">
<rect width="27.625" height="27.625" fill="white" transform="translate(0.6875 0.6875)"/>
</clipPath>
</defs>
</svg>
