<svg width="70" height="100" viewBox="0 0 70 100" fill="none" xmlns="http://www.w3.org/2000/svg">
<path d="M21.2982 67.964V65.7113C21.2982 60.5488 21.705 56.4345 22.5184 53.3683C23.3319 50.3021 24.5365 47.8461 26.1321 46.0001C27.7278 44.1228 29.6833 42.4333 31.9986 40.9315C34.001 39.6174 35.7844 38.3503 37.3487 37.1301C38.9444 35.9099 40.1959 34.6114 41.1032 33.2348C42.0419 31.8581 42.5112 30.2937 42.5112 28.5416C42.5112 26.9773 42.1357 25.6006 41.3848 24.4117C40.6339 23.2228 39.6171 22.2998 38.3343 21.6427C37.0515 20.9857 35.6279 20.6572 34.0635 20.6572C32.374 20.6572 30.8096 21.0483 29.3704 21.8305C27.9625 22.6127 26.8205 23.6921 25.9444 25.0687C25.0997 26.4454 24.6773 28.041 24.6773 29.8557H0.648436C0.711011 22.9725 2.27539 17.3876 5.34157 13.1012C8.40775 8.78356 12.4751 5.62351 17.5437 3.62111C22.6123 1.58742 28.1815 0.570574 34.2513 0.570574C40.9468 0.570574 46.9227 1.55613 52.179 3.52725C57.4353 5.46708 61.5809 8.4081 64.6158 12.3503C67.6507 16.2613 69.1682 21.1578 69.1682 27.0398C69.1682 30.8256 68.5111 34.1578 67.1971 37.0362C65.9143 39.8834 64.1152 42.402 61.7999 44.5922C59.516 46.751 56.8409 48.7221 53.7747 50.5055C51.522 51.8196 49.6291 53.1806 48.096 54.5885C46.5629 55.9652 45.4053 57.5452 44.6231 59.3286C43.8409 61.0807 43.4498 63.2082 43.4498 65.7113V67.964H21.2982ZM32.7495 99.5018C29.1201 99.5018 26.007 98.2347 23.4101 95.7004C20.8445 93.1348 19.5774 90.0217 19.6087 86.361C19.5774 82.7943 20.8445 79.7437 23.4101 77.2094C26.007 74.6751 29.1201 73.408 32.7495 73.408C36.1911 73.408 39.226 74.6751 41.8541 77.2094C44.5136 79.7437 45.8589 82.7943 45.8902 86.361C45.8589 88.8015 45.2175 91.0229 43.966 93.0253C42.7458 94.9964 41.1502 96.5764 39.1791 97.7653C37.2079 98.923 35.0647 99.5018 32.7495 99.5018Z" fill="white"/>
</svg>
