<svg width="60" height="60" viewBox="0 0 60 60" fill="none" xmlns="http://www.w3.org/2000/svg">
<path d="M54.9967 14.6491V25.7544C55.0814 31.5466 53.5396 37.2457 50.5478 42.1993C45.9071 49.5069 38.9698 55.0511 30.8349 57.9538C30.6247 58.0154 30.4013 58.0154 30.191 57.9538C22.0573 55.053 15.1201 49.5115 10.4782 42.2066C8.02945 38.1728 6.55359 33.6205 6.1683 28.9126C6.1421 28.6204 6.23261 28.3298 6.41993 28.1046C6.60724 27.8794 6.87601 27.7381 7.16711 27.7118C7.45821 27.6855 7.7478 27.7763 7.97216 27.9643C8.19653 28.1524 8.33729 28.4221 8.36349 28.7143C8.7195 33.07 10.0825 37.2823 12.3441 41.0168C16.6765 47.7403 23.0455 52.8896 30.513 55.7063C37.9763 52.8824 44.3433 47.7347 48.6819 41.0168C51.4359 36.4047 52.8619 31.1164 52.8015 25.7397V15.6333C49.7575 15.2073 40.4865 13.2463 30.513 4.57211C20.5395 13.2463 11.2685 15.2073 8.22446 15.6333V21.3696C8.22446 21.6618 8.10882 21.942 7.90298 22.1486C7.69714 22.3552 7.41797 22.4713 7.12687 22.4713C6.83577 22.4713 6.55659 22.3552 6.35075 22.1486C6.14491 21.942 6.02927 21.6618 6.02927 21.3696V14.6491C6.02917 14.3619 6.14078 14.0861 6.34033 13.8803C6.53988 13.6745 6.8116 13.5551 7.0976 13.5474C7.20736 13.5474 18.2126 12.7248 29.7812 2.28055C29.9825 2.09988 30.243 2 30.513 2C30.783 2 31.0435 2.09988 31.2447 2.28055C42.85 12.7248 53.8552 13.5401 53.9649 13.5474C54.2445 13.5643 54.507 13.6877 54.6988 13.8926C54.8906 14.0974 54.9972 14.368 54.9967 14.6491ZM7.0976 26.3273C8.56106 26.3273 8.56106 23.9402 7.0976 23.9402C5.63413 23.9402 5.63413 26.3273 7.0976 26.3273ZM36.7327 45.5779C36.5183 45.6979 36.3505 45.8869 36.2565 46.1145C36.1625 46.3421 36.1477 46.5948 36.2146 46.8319C36.2815 47.0689 36.4261 47.2764 36.625 47.4207C36.8239 47.565 37.0655 47.6377 37.3108 47.6271C37.5275 47.6263 37.7399 47.5663 37.9252 47.4535C38.1105 47.3407 38.2617 47.1794 38.3625 46.9868C38.4633 46.7942 38.51 46.5777 38.4974 46.3605C38.4849 46.1434 38.4136 45.9337 38.2913 45.7542C38.2028 45.6412 38.093 45.5469 37.968 45.4768C37.843 45.4067 37.7055 45.3622 37.5632 45.3458C37.421 45.3294 37.277 45.3415 37.1395 45.3813C37.0019 45.4211 36.8736 45.488 36.762 45.5779H36.7327ZM40.3913 45.3355C42.3836 43.4862 44.1254 41.3823 45.572 39.0778C47.9606 35.0516 49.1915 30.44 49.1282 25.7544V19.482C49.1285 19.2395 49.049 19.0037 48.9022 18.8111C48.7553 18.6186 48.5493 18.48 48.316 18.417C42.107 16.6774 36.2874 13.7604 31.1715 9.82361C30.9809 9.67884 30.7484 9.6005 30.5093 9.6005C30.2703 9.6005 30.0377 9.67884 29.8471 9.82361C24.729 13.7612 18.9069 16.6782 12.6953 18.417C12.4621 18.48 12.256 18.6186 12.1092 18.8111C11.9623 19.0037 11.8829 19.2395 11.8831 19.482V25.7544C11.8185 30.4424 13.0494 35.0568 15.4393 39.0851C18.9961 44.5941 24.0843 48.9352 30.0739 51.5712C30.2149 51.6322 30.3668 51.6637 30.5203 51.6637C30.6738 51.6637 30.8257 51.6322 30.9666 51.5712C32.506 50.8806 33.9929 50.0778 35.4156 49.1695C35.6523 49.0088 35.8173 48.7617 35.8754 48.4808C35.9335 48.1999 35.8801 47.9074 35.7267 47.6654C35.5733 47.4233 35.3318 47.2509 35.0537 47.1848C34.7756 47.1187 34.4828 47.164 34.2375 47.3112C33.0424 48.0825 31.7982 48.7744 30.513 49.3825C25.1103 46.9012 20.5274 42.9204 17.3052 37.91C15.1347 34.2341 14.0203 30.0269 14.0856 25.7544V20.3193C19.9982 18.5546 25.5577 15.7657 30.513 12.0784C35.4705 15.7664 41.0325 18.5554 46.9476 20.3193V25.7544C47.013 30.0269 45.8986 34.2341 43.728 37.91C42.3831 40.0495 40.7644 42.0028 38.9132 43.7197C38.7844 43.8089 38.6761 43.9247 38.5956 44.0594C38.5151 44.1941 38.4641 44.3445 38.4463 44.5006C38.4284 44.6566 38.444 44.8147 38.492 44.9642C38.54 45.1138 38.6193 45.2513 38.7245 45.3675C38.8298 45.4837 38.9586 45.576 39.1023 45.6382C39.2461 45.7003 39.4014 45.7309 39.5578 45.7279C39.7143 45.7249 39.8683 45.6883 40.0096 45.6206C40.1508 45.5529 40.276 45.4557 40.3767 45.3355H40.3913ZM39.1108 34.0393H34.5375V38.6297C34.5375 38.9219 34.4219 39.2022 34.216 39.4088C34.0102 39.6154 33.731 39.7315 33.4399 39.7315H27.5861C27.295 39.7315 27.0158 39.6154 26.8099 39.4088C26.6041 39.2022 26.4885 38.9219 26.4885 38.6297V34.0393H21.9151C21.624 34.0393 21.3449 33.9232 21.139 33.7166C20.9332 33.51 20.8175 33.2297 20.8175 32.9376V27.0618C20.8175 26.7696 20.9332 26.4893 21.139 26.2827C21.3449 26.0761 21.624 25.96 21.9151 25.96H26.4885V21.3696C26.4885 21.0774 26.6041 20.7971 26.8099 20.5905C27.0158 20.3839 27.295 20.2679 27.5861 20.2679H33.4399C33.731 20.2679 34.0102 20.3839 34.216 20.5905C34.4219 20.7971 34.5375 21.0774 34.5375 21.3696V25.96H39.1108C39.4019 25.96 39.6811 26.0761 39.8869 26.2827C40.0928 26.4893 40.2084 26.7696 40.2084 27.0618V32.9376C40.2084 33.2297 40.0928 33.51 39.8869 33.7166C39.6811 33.9232 39.4019 34.0393 39.1108 34.0393ZM38.0132 28.1635H33.4399C33.1488 28.1635 32.8696 28.0474 32.6638 27.8408C32.4579 27.6342 32.3423 27.3539 32.3423 27.0618V22.4713H28.6836V27.0618C28.6836 27.3539 28.568 27.6342 28.3622 27.8408C28.1563 28.0474 27.8772 28.1635 27.5861 28.1635H23.0127V31.8358H27.5861C27.8772 31.8358 28.1563 31.9519 28.3622 32.1585C28.568 32.3651 28.6836 32.6454 28.6836 32.9376V37.528H32.3423V32.9376C32.3423 32.6454 32.4579 32.3651 32.6638 32.1585C32.8696 31.9519 33.1488 31.8358 33.4399 31.8358H38.0132V28.1635Z" fill="#333333"/>
</svg>
