<svg width="86" height="86" viewBox="0 0 86 86" fill="none" xmlns="http://www.w3.org/2000/svg">
<path d="M66.9942 46.9825L66.9775 59.9642C66.9823 65.0061 65.1484 69.8777 61.8178 73.6708C59.818 75.8817 58.7353 78.7679 58.7889 81.745C58.7896 81.9096 58.7576 82.0727 58.6949 82.2249C58.6322 82.3771 58.54 82.5155 58.4236 82.6321C58.3071 82.7487 58.1687 82.8412 58.0163 82.9044C57.8639 82.9675 57.7006 83 57.5355 83C57.204 83 56.886 82.869 56.6511 82.6357C56.4161 82.4023 56.2835 82.0856 56.2822 81.755C56.236 78.1705 57.5389 74.6991 59.9336 72.0258C62.863 68.6873 64.4755 64.4005 64.4707 59.9642L64.4841 46.98C64.5268 46.4101 64.4136 45.8393 64.1565 45.3286C63.8994 44.8179 63.5081 44.3863 63.0244 44.08C62.5863 43.8294 62.0906 43.6962 61.5855 43.6935C61.0805 43.6907 60.5834 43.8184 60.1425 44.0642C59.6617 44.3759 59.2745 44.8116 59.022 45.3252C58.7696 45.8387 58.6613 46.4109 58.7087 46.9808C58.7087 47.3124 58.5766 47.6303 58.3416 47.8647C58.1065 48.0991 57.7877 48.2308 57.4553 48.2308C57.1229 48.2308 56.8041 48.0991 56.5691 47.8647C56.334 47.6303 56.202 47.3124 56.202 46.9808V42.4808C56.225 42.0581 56.1542 41.6355 55.9948 41.2432C55.8353 40.8508 55.5911 40.4983 55.2795 40.2108C54.6798 39.7104 53.9198 39.4412 53.138 39.4525C52.7319 39.4276 52.3252 39.4884 51.9444 39.631C51.5635 39.7736 51.2171 39.9947 50.9278 40.2798C50.6385 40.565 50.4127 40.9079 50.2653 41.286C50.1179 41.6641 50.0521 42.069 50.0722 42.4742L50.0681 46.9783C50.0681 47.3099 49.936 47.6278 49.701 47.8622C49.4659 48.0966 49.1471 48.2283 48.8147 48.2283C48.4823 48.2283 48.1635 48.0966 47.9285 47.8622C47.6934 47.6278 47.5614 47.3099 47.5614 46.9783L47.5664 42.3058C47.6015 41.7889 47.4913 41.2725 47.2482 40.8146C47.0051 40.3568 46.6387 39.9757 46.1902 39.7142C45.6727 39.4275 45.0905 39.277 44.4986 39.277C43.9066 39.277 43.3245 39.4275 42.807 39.7142C42.3721 39.9665 42.0142 40.3321 41.7716 40.7717C41.5291 41.2114 41.411 41.7085 41.43 42.21V46.9833C41.43 47.3149 41.2979 47.6328 41.0629 47.8672C40.8278 48.1016 40.509 48.2333 40.1766 48.2333C39.8442 48.2333 39.5254 48.1016 39.2904 47.8672C39.0553 47.6328 38.9233 47.3149 38.9233 46.9833L38.9408 19.8167C38.941 19.414 38.8617 19.0151 38.7073 18.643C38.5529 18.2709 38.3265 17.9328 38.041 17.648C37.7555 17.3632 37.4165 17.1373 37.0435 16.9832C36.6704 16.8291 36.2706 16.7499 35.8668 16.75H35.8609C35.0483 16.7513 34.2692 17.0739 33.6946 17.647C33.12 18.2201 32.7965 18.997 32.7952 19.8075L32.7727 54.8442C32.7727 55.1757 32.6406 55.4936 32.4056 55.728C32.1705 55.9625 31.8517 56.0942 31.5193 56.0942C31.1869 56.0942 30.8681 55.9625 30.6331 55.728C30.398 55.4936 30.266 55.1757 30.266 54.8442L30.2718 45.855H29.6034C28.7926 45.8583 28.0158 46.1803 27.4416 46.7511C26.8673 47.3219 26.5419 48.0956 26.536 48.9042L26.5285 59.9333C26.5354 64.3847 28.1645 68.6818 31.1124 72.0242C33.5097 74.6971 34.8152 78.1691 34.7713 81.755C34.77 82.0856 34.6374 82.4023 34.4025 82.6357C34.1676 82.869 33.8495 83 33.518 83H33.513C33.3483 82.9995 33.1854 82.9666 33.0335 82.9032C32.8815 82.8398 32.7437 82.7472 32.6276 82.6306C32.5116 82.5141 32.4198 82.3759 32.3574 82.2239C32.2949 82.072 32.2631 81.9092 32.2638 81.745C32.3159 78.7649 31.2291 75.8768 29.224 73.6667C25.876 69.8684 24.0271 64.9856 24.0218 59.9283L24.0301 48.9C24.0356 47.4265 24.6259 46.0151 25.6718 44.9743C26.7177 43.9335 28.1342 43.348 29.6117 43.3458H30.2726L30.2877 19.8C30.2908 18.3275 30.8787 16.9163 31.9228 15.8751C32.9668 14.834 34.382 14.2479 35.8584 14.245H35.8693C37.3474 14.2479 38.7641 14.8352 39.8087 15.8783C40.8533 16.9213 41.4406 18.3349 41.4417 19.8092L41.43 37.6183C41.4709 37.5933 41.5135 37.5667 41.552 37.5425C42.4509 37.0365 43.4657 36.771 44.4979 36.7718C45.5301 36.7725 46.5445 37.0394 47.4427 37.5467C47.9962 37.8651 48.4855 38.2833 48.8857 38.78C49.426 38.1952 50.0835 37.7301 50.8157 37.4152C51.5478 37.1002 52.3382 36.9423 53.1354 36.9517H53.1405C54.5477 36.9025 55.9182 37.4061 56.957 38.3543C57.9958 39.3024 58.62 40.6193 58.6953 42.0217C58.7605 41.98 58.8257 41.9383 58.8933 41.8975C59.7147 41.4299 60.6447 41.1854 61.5904 41.1884C62.5361 41.1915 63.4645 41.442 64.2827 41.915C65.1494 42.4389 65.8585 43.186 66.3357 44.0777C66.8128 44.9694 67.0402 45.9728 66.9942 46.9825ZM45.1391 18.5417C44.8066 18.5417 44.4879 18.6734 44.2528 18.9078C44.0178 19.1422 43.8857 19.4601 43.8857 19.7917C43.8857 20.1232 44.0178 20.4411 44.2528 20.6756C44.4879 20.91 44.8066 21.0417 45.1391 21.0417L51.481 21.06C51.8134 21.06 52.1322 20.9283 52.3673 20.6939C52.6023 20.4595 52.7344 20.1415 52.7344 19.81C52.7344 19.4785 52.6023 19.1605 52.3673 18.9261C52.1322 18.6917 51.8134 18.56 51.481 18.56L45.1399 18.5425L45.1391 18.5417ZM35.8643 11.8075C36.1967 11.8075 36.5155 11.6758 36.7505 11.4414C36.9856 11.207 37.1176 10.889 37.1176 10.5575L37.1067 4.25C37.1067 3.91848 36.9747 3.60054 36.7397 3.36612C36.5046 3.1317 36.1858 3 35.8534 3C35.521 3 35.2022 3.1317 34.9671 3.36612C34.7321 3.60054 34.6 3.91848 34.6 4.25L34.6134 10.5575C34.6134 10.7217 34.6458 10.8842 34.7088 11.0359C34.7718 11.1875 34.8641 11.3253 34.9805 11.4414C35.0969 11.5575 35.2351 11.6495 35.3871 11.7123C35.5392 11.7752 35.7022 11.8075 35.8668 11.8075H35.8643ZM42.4143 14.5225C42.7459 14.5227 43.0641 14.3917 43.2991 14.1583L47.7978 9.69417C47.9145 9.57833 48.0072 9.4407 48.0706 9.28915C48.1339 9.13759 48.1668 8.97507 48.1671 8.81086C48.1675 8.64666 48.1355 8.48398 48.0728 8.33213C48.0102 8.18028 47.9182 8.04222 47.802 7.92583C47.6859 7.80945 47.5479 7.71702 47.3959 7.65382C47.2439 7.59063 47.081 7.5579 46.9163 7.55752C46.7517 7.55713 46.5886 7.58909 46.4363 7.65157C46.2841 7.71405 46.1456 7.80583 46.0289 7.92167L41.5302 12.3858C41.3541 12.5604 41.234 12.7831 41.185 13.0259C41.136 13.2686 41.1604 13.5204 41.2551 13.7493C41.3498 13.9782 41.5105 14.1739 41.7169 14.3115C41.9233 14.4492 42.166 14.5226 42.4143 14.5225ZM27.8436 19.7883C27.8436 19.4568 27.7116 19.1389 27.4765 18.9045C27.2415 18.67 26.9227 18.5383 26.5903 18.5383L20.2534 18.5558C19.9209 18.5558 19.6021 18.6875 19.3671 18.922C19.132 19.1564 19 19.4743 19 19.8058C19 20.1374 19.132 20.4553 19.3671 20.6897C19.6021 20.9241 19.9209 21.0558 20.2534 21.0558L26.5903 21.0375C26.9226 21.0375 27.2412 20.9059 27.4763 20.6717C27.7113 20.4374 27.8434 20.1197 27.8436 19.7883ZM28.4285 14.1542C28.5452 14.27 28.6837 14.3618 28.8359 14.4243C28.9882 14.4867 29.1513 14.5187 29.3159 14.5183C29.4806 14.5179 29.6435 14.4852 29.7955 14.422C29.9475 14.3588 30.0855 14.2664 30.2016 14.15C30.3178 14.0336 30.4098 13.8956 30.4724 13.7437C30.5351 13.5918 30.5671 13.4292 30.5667 13.265C30.5664 13.1008 30.5335 12.9382 30.4702 12.7867C30.4068 12.6351 30.3141 12.4975 30.1974 12.3817L25.7063 7.92167C25.5896 7.80588 25.4511 7.71416 25.2989 7.65173C25.1467 7.5893 24.9836 7.55738 24.819 7.55781C24.6544 7.55824 24.4915 7.59099 24.3396 7.65421C24.1876 7.71743 24.0497 7.80987 23.9336 7.92625C23.8175 8.04263 23.7255 8.18068 23.6629 8.33252C23.6003 8.48435 23.5684 8.64699 23.5688 8.81116C23.5692 8.97532 23.602 9.1378 23.6654 9.28931C23.7288 9.44081 23.8215 9.57838 23.9382 9.69417L28.4285 14.1542Z" fill="#333333"/>
</svg>
