<svg width="99" height="41" viewBox="0 0 99 41" fill="none" xmlns="http://www.w3.org/2000/svg">
<g clip-path="url(#clip0_0_612)">
<path d="M5.34147 5.18408C5.34147 5.97043 5.34147 6.59573 5.34147 7.21865C5.34383 17.8344 5.32966 28.4501 5.37454 39.0659C5.37927 40.1744 5.06275 40.532 3.98092 40.4373C2.9794 40.3473 1.9637 40.4183 0.886597 40.4183V0.615189C1.23855 0.584398 1.57632 0.525185 1.91646 0.525185C14.8654 0.515711 27.8119 0.442286 40.7608 0.53229C50.4122 0.598609 57.2741 5.86622 60.1015 15.0822C60.17 15.3048 60.2574 15.5227 60.4133 15.9562C60.9755 15.0774 61.4573 14.3432 61.9226 13.5971C64.443 9.54928 66.9704 5.5062 69.46 1.43707C69.8781 0.754932 70.3246 0.430444 71.1513 0.480183C72.389 0.553607 73.6362 0.499131 75.1361 0.499131C74.1676 2.19026 73.348 3.65164 72.5024 5.10118C67.9176 12.9647 63.3706 20.8519 58.7197 28.6752C55.9655 33.3056 52.4389 37.2042 47.2329 39.118C45.5228 39.748 43.6638 40.2454 41.8592 40.2999C36.6319 40.4562 31.3975 40.3544 26.012 40.3544C25.9837 39.9375 25.9317 39.5254 25.9317 39.1133C25.927 32.0503 25.9482 24.985 25.9057 17.922C25.8986 16.8846 26.1892 16.508 27.2403 16.5957C28.2867 16.6833 29.3473 16.6146 30.5354 16.6146V35.4823C31.081 35.5107 31.4967 35.551 31.9148 35.551C34.8674 35.5557 37.8177 35.5439 40.7703 35.551C48.062 35.5723 54.5648 30.2787 55.8049 23.2986C57.1867 15.5227 53.4428 8.81978 46.118 6.19071C44.5543 5.62937 42.8347 5.23382 41.1836 5.22198C29.6921 5.13908 18.2006 5.17935 6.70675 5.17935C6.31701 5.17935 5.92491 5.17935 5.34147 5.17935V5.18408Z" fill="black"/>
<path d="M11.608 11.6859V16.6077H24.1246V21.3922H6.99011V6.95125C7.33261 6.91809 7.63732 6.86125 7.93967 6.86125C18.9611 6.86125 29.9849 6.78782 41.0064 6.90625C46.2667 6.96309 50.4807 9.26294 52.9278 14.0663C55.2875 18.6992 55.1293 23.4149 52.2593 27.7943C49.8264 31.5034 46.3069 33.5925 41.7835 33.6706C38.7175 33.7227 35.6492 33.6801 32.484 33.6801V16.6954H37.1208V28.9241C42.4024 29.4689 45.8676 29.1538 48.5887 24.4878C51.8318 18.9242 47.7856 11.7238 41.2969 11.6291C31.5368 11.487 21.772 11.5817 12.0095 11.5817C11.9009 11.5817 11.7899 11.6386 11.6103 11.6883L11.608 11.6859Z" fill="black"/>
<path d="M92.5829 33.6599H68.6055V29.1265H84.1267C81.0725 24.1384 78.1577 19.3753 75.1343 14.4369C73.5186 17.2649 72.0163 19.8892 70.5235 22.5159C67.2898 28.2028 64.049 33.8872 60.8437 39.5907C60.4823 40.2349 60.0689 40.4504 59.3461 40.4268C57.5958 40.3723 55.8408 40.4102 53.8378 40.4102C60.976 28.5912 67.9748 17.002 75.1225 5.16882C80.9639 14.7022 86.7061 24.0697 92.5806 33.6599H92.5829Z" fill="black"/>
<path d="M95.6495 35.4121C94.0692 32.6575 92.5173 29.8887 90.904 27.1554C85.8823 18.6429 80.8392 10.1446 75.8057 1.63923C75.6309 1.34554 75.4868 1.03289 75.2128 0.509446C76.8662 0.509446 78.3425 0.462075 79.8117 0.544974C80.133 0.563922 80.518 0.987889 80.7235 1.32185C85.9153 9.73249 91.0883 18.155 96.266 26.5751C96.9675 27.7167 97.6549 28.8655 98.3871 29.9858C98.7272 30.5021 98.8052 30.9048 98.4225 31.4685C97.7163 32.5083 97.1352 33.6333 96.4526 34.692C96.266 34.9834 95.9069 35.161 95.6258 35.3908L95.6495 35.4144V35.4121Z" fill="black"/>
<path d="M6.98466 23.5331H24.2231C24.2231 24.8974 24.216 26.1882 24.2231 27.4791C24.2278 28.3104 23.6255 28.1541 23.1389 28.1565C19.6785 28.1636 16.2157 28.1991 12.7552 28.1375C11.7513 28.1209 11.4939 28.4383 11.5104 29.4047C11.5624 32.7159 11.5104 36.0294 11.5458 39.343C11.5553 40.1696 11.2978 40.4633 10.4687 40.4207C9.33965 40.3591 8.20349 40.4065 6.9823 40.4065V23.5331H6.98466Z" fill="black"/>
<path d="M95.6231 35.389C95.4412 35.9172 95.2664 36.4501 95.0775 36.976C94.0334 39.8585 92.0611 40.6424 89.0046 40.5003C82.7191 40.209 76.4123 40.4127 70.115 40.4127C69.6497 40.4127 69.1844 40.4127 68.6151 40.4127V35.5548C69.0379 35.5548 69.4867 35.5548 69.9379 35.5548C77.9288 35.5501 85.9197 35.5501 93.9106 35.5383C94.4917 35.5383 95.0728 35.4601 95.6515 35.4151C95.6491 35.4127 95.6255 35.389 95.6255 35.389H95.6231Z" fill="black"/>
</g>
<defs>
<clipPath id="clip0_0_612">
<rect width="97.79" height="40.04" fill="white" transform="translate(0.886597 0.476929)"/>
</clipPath>
</defs>
</svg>
