<svg width="73" height="80" viewBox="0 0 73 80" fill="none" xmlns="http://www.w3.org/2000/svg">
<g clip-path="url(#clip0_0_624)">
<path d="M36.8282 0.462646C36.9494 0.512732 37.0714 0.56201 37.1925 0.613711C37.9721 0.946538 38.4431 1.5201 38.5352 2.37398C38.5626 2.62683 38.561 2.88372 38.561 3.139C38.5618 19.5073 38.5618 35.8764 38.5618 52.2447C38.5618 52.4152 38.5618 52.5864 38.5618 52.7569C38.6224 52.8029 38.683 52.8482 38.7436 52.8942C38.8187 52.7536 38.8664 52.5856 38.9738 52.4774C43.2198 48.2217 47.4714 43.9701 51.723 39.7201C52.5462 38.8969 53.4437 38.6909 54.3493 39.1094C55.6814 39.7241 56.0449 41.4319 55.0763 42.5346C55.0052 42.6153 54.9277 42.6897 54.851 42.7656C49.2874 48.3291 43.7206 53.8895 38.1628 59.4587C37.5674 60.0556 36.913 60.4167 36.0438 60.2681C35.53 60.18 35.1342 59.9062 34.7739 59.5451C29.6603 54.4259 24.5427 49.3099 19.4267 44.193C18.9129 43.6793 18.3951 43.1703 17.887 42.6517C17.0137 41.7598 16.9983 40.4399 17.845 39.5739C18.6996 38.7006 20.018 38.6578 20.9188 39.5246C22.0812 40.6434 23.2098 41.7978 24.3512 42.9385C27.5284 46.1141 30.704 49.2913 33.8796 52.4685C33.983 52.5719 34.0735 52.689 34.1696 52.7997C34.2092 52.7884 34.2488 52.7763 34.2892 52.765V52.2827C34.2892 37.1916 34.2892 22.1004 34.2892 7.01013C34.2892 5.71921 34.2892 4.42749 34.2892 3.13657C34.2892 1.55887 34.6099 1.06448 36.0228 0.462646C36.2902 0.462646 36.5592 0.462646 36.8282 0.462646Z" fill="black"/>
<path d="M23.5785 11.1865V15.4382C23.4162 15.4382 23.2619 15.4382 23.1068 15.4382C19.7308 15.4382 16.3557 15.4309 12.9798 15.4398C8.90991 15.4511 5.54529 18.0846 4.60497 22.022C4.44745 22.6812 4.38524 23.3775 4.38444 24.0561C4.37232 38.2457 4.39251 52.4361 4.36424 66.6257C4.35616 70.6891 7.18358 74.2338 11.087 75.057C11.6743 75.1806 12.2834 75.2606 12.8828 75.2606C28.5774 75.2711 44.2728 75.2735 59.9674 75.2662C64.2456 75.2646 67.8082 72.1028 68.3914 67.8221C68.4351 67.5038 68.4625 67.1806 68.4625 66.8591C68.4658 52.4813 68.4738 38.1027 68.4585 23.7249C68.4545 19.7286 65.2934 16.1289 61.3455 15.5529C60.7623 15.4681 60.1685 15.4228 59.5796 15.4212C56.3119 15.4091 53.0434 15.4155 49.7757 15.4155H49.2773V11.1405C49.4227 11.1405 49.5665 11.1405 49.7095 11.1405C53.058 11.1405 56.4072 11.1332 59.7557 11.1421C65.8282 11.1575 70.8836 15.0351 72.3466 20.8418C72.5809 21.7708 72.7214 22.7499 72.723 23.7055C72.7465 38.1108 72.7974 52.5161 72.7093 66.9205C72.6778 72.102 70.0895 75.8834 65.5002 78.2649C63.7682 79.164 61.8916 79.5469 59.9423 79.5469C44.2607 79.5494 28.5798 79.5526 12.8982 79.5469C6.6189 79.5445 1.24277 74.9682 0.273374 68.8076C0.161086 68.0943 0.106961 67.364 0.106961 66.6418C0.0980746 52.4514 0.120694 38.2619 0.0899963 24.0715C0.0778788 18.4692 3.67839 13.505 8.93415 11.7876C10.2073 11.3715 11.5144 11.1647 12.8538 11.1647C16.3234 11.1647 19.793 11.1647 23.2635 11.1647C23.3564 11.1647 23.4493 11.1768 23.5793 11.1857L23.5785 11.1865Z" fill="black"/>
</g>
<defs>
<clipPath id="clip0_0_624">
<rect width="72.6694" height="79.0868" fill="white" transform="translate(0.0899658 0.462646)"/>
</clipPath>
</defs>
</svg>
