<svg width="59" height="91" viewBox="0 0 59 91" fill="none" xmlns="http://www.w3.org/2000/svg">
<g clip-path="url(#clip0_0_637)">
<path d="M5.95277 90.2612C5.37109 90.068 4.7544 89.9438 4.21338 89.6704C1.9262 88.5184 0.78656 86.6141 0.678131 84.0716C0.673613 83.9587 0.677001 83.8457 0.677001 83.7328C0.677001 60.687 0.677001 37.6412 0.677001 14.5954C0.677001 11.4442 2.59485 9.0102 5.62635 8.34494C6.13349 8.23312 6.67112 8.2286 7.19406 8.22521C9.61904 8.21392 12.044 8.20827 14.469 8.23086C14.9434 8.23538 15.0778 8.09306 15.0654 7.62772C15.0349 6.48243 15.0495 5.33489 15.0563 4.18847C15.0721 1.79173 16.8285 0.022974 19.2173 0.020715C26.0224 0.0150677 32.8263 0.0150677 39.6314 0.020715C41.8768 0.022974 43.623 1.64716 43.7416 3.88577C43.8082 5.14175 43.7879 6.40337 43.7664 7.66273C43.7585 8.11339 43.8986 8.23312 44.3402 8.23086C47.0656 8.22182 49.7921 8.19472 52.5164 8.26249C55.2136 8.33025 57.7674 10.7756 58.0554 13.4694C58.1186 14.0657 58.1514 14.6689 58.1514 15.2686C58.1559 38.0704 58.1536 60.8711 58.157 83.6729C58.157 86.3769 57.0467 88.4212 54.6127 89.6637C54.074 89.9393 53.4595 90.0658 52.879 90.2612H5.95277ZM4.81765 49.1991C4.81765 60.6848 4.83459 72.1715 4.79732 83.6571C4.79167 85.2056 5.66363 86.1826 7.31604 86.1804C22.0545 86.1623 36.7919 86.1634 51.5304 86.1804C53.1986 86.1826 54.0367 85.1559 54.0344 83.6955C54.0073 60.7232 54.0152 37.7519 54.0152 14.7795C54.0152 13.0752 53.2483 12.3105 51.5383 12.3105C36.7817 12.3105 22.024 12.3207 7.26748 12.2947C5.84208 12.2924 4.7928 13.1328 4.79732 14.7423C4.83346 26.2279 4.81652 37.7146 4.81652 49.2003L4.81765 49.1991Z" fill="black"/>
<path d="M30.3201 45.1405H42.1491C35.9381 53.1191 29.7893 61.0176 23.6404 68.916C23.6065 68.899 23.5715 68.8832 23.5376 68.8663C25.1855 63.0404 26.8323 57.2146 28.4983 51.3233H16.6523C22.8949 43.304 29.0415 35.4079 35.1881 27.5117C35.2232 27.5264 35.2582 27.5422 35.2932 27.5569C33.6419 33.3974 31.9895 39.2368 30.3201 45.1405Z" fill="black"/>
</g>
<defs>
<clipPath id="clip0_0_637">
<rect width="57.4812" height="90.2449" fill="white" transform="translate(0.675781 0.0166016)"/>
</clipPath>
</defs>
</svg>
