<svg width="86" height="86" viewBox="0 0 86 86" fill="none" xmlns="http://www.w3.org/2000/svg">
<path d="M46.5711 19.6283C46.0441 19.6283 45.5387 19.8377 45.166 20.2103C44.7934 20.583 44.584 21.0884 44.584 21.6154V42.9997C44.584 43.5267 44.7934 44.0322 45.166 44.4048C45.5387 44.7775 46.0441 44.9868 46.5711 44.9868H56.9042C57.4312 44.9868 57.9366 44.7775 58.3093 44.4048C58.6819 44.0322 58.8913 43.5267 58.8913 42.9997C58.8913 42.4727 58.6819 41.9673 58.3093 41.5946C57.9366 41.222 57.4312 41.0126 56.9042 41.0126H48.5582V21.6154C48.5582 21.0884 48.3488 20.583 47.9762 20.2103C47.6035 19.8377 47.0981 19.6283 46.5711 19.6283Z" fill="#333333"/>
<path d="M15.8406 29.6007H30.3746C30.9017 29.6007 31.4071 29.3913 31.7797 29.0187C32.1524 28.646 32.3618 28.1406 32.3618 27.6136C32.3618 27.0866 32.1524 26.5811 31.7797 26.2085C31.4071 25.8358 30.9017 25.6265 30.3746 25.6265H15.8406C15.3136 25.6265 14.8082 25.8358 14.4355 26.2085C14.0629 26.5811 13.8535 27.0866 13.8535 27.6136C13.8535 28.1406 14.0629 28.646 14.4355 29.0187C14.8082 29.3913 15.3136 29.6007 15.8406 29.6007Z" fill="#333333"/>
<path d="M25.0941 42.9998C25.0941 42.4728 24.8847 41.9674 24.5121 41.5947C24.1394 41.2221 23.634 41.0127 23.107 41.0127H10.534C10.007 41.0127 9.50154 41.222 9.12888 41.5947C8.75623 41.9674 8.54687 42.4728 8.54688 42.9998C8.54688 43.5268 8.75623 44.0322 9.12888 44.4049C9.50154 44.7775 10.007 44.9869 10.534 44.9869H23.107C23.634 44.9869 24.1394 44.7775 24.5121 44.4049C24.8847 44.0322 25.0941 43.5268 25.0941 42.9998Z" fill="#333333"/>
<path d="M32.3618 58.386C32.3617 57.859 32.1524 57.3536 31.7797 56.9809C31.4071 56.6083 30.9017 56.3989 30.3746 56.3989H15.8406C15.3136 56.3989 14.8082 56.6083 14.4355 56.9809C14.0629 57.3536 13.8535 57.859 13.8535 58.386C13.8535 58.913 14.0629 59.4185 14.4355 59.7911C14.8082 60.1638 15.3136 60.3731 15.8406 60.3731H30.3746C30.9017 60.3731 31.4071 60.1638 31.7797 59.7911C32.1524 59.4185 32.3617 58.913 32.3618 58.386Z" fill="#333333"/>
<path d="M46.571 12C40.4038 11.9899 34.3751 13.8285 29.2631 17.2785C28.8261 17.5731 28.5241 18.0292 28.4234 18.5465C28.3227 19.0638 28.4316 19.6 28.7262 20.0369C29.0208 20.4739 29.4769 20.776 29.9942 20.8767C30.5116 20.9774 31.0477 20.8684 31.4847 20.5738C35.9406 17.5671 41.1955 15.9649 46.571 15.9742C61.473 15.9742 73.5966 28.0978 73.5966 42.9998C73.5966 57.9016 61.473 70.0253 46.571 70.0253C41.1955 70.0346 35.9406 68.4324 31.4847 65.4256C31.0476 65.131 30.5115 65.0221 29.9942 65.1228C29.4769 65.2235 29.0207 65.5256 28.7262 65.9626C28.4316 66.3996 28.3226 66.9357 28.4233 67.4531C28.524 67.9704 28.8261 68.4265 29.2631 68.7211C34.3751 72.171 40.4038 74.0096 46.571 73.9995C63.6643 73.9995 77.5708 60.093 77.5708 42.9998C77.5708 25.9064 63.6643 12 46.571 12Z" fill="#333333"/>
</svg>
