<svg width="20" height="15" viewBox="0 0 20 15" fill="none" xmlns="http://www.w3.org/2000/svg">
<path d="M9.33008 3.85156C9.39648 3.78516 9.49609 3.75195 9.5957 3.75195C9.66211 3.75195 9.76172 3.78516 9.82812 3.85156L15.9707 8.86523V14.3105C15.9707 14.6094 15.7051 14.8418 15.4395 14.8418H11.6875C11.4219 14.8418 11.1562 14.6094 11.1562 14.3105V11.123C11.1562 10.8574 10.9238 10.5918 10.625 10.5918H8.5C8.23438 10.5918 7.96875 10.8574 7.96875 11.123V14.3105C7.96875 14.6094 7.73633 14.8418 7.4707 14.8418H3.75195C3.45312 14.8418 3.2207 14.6094 3.2207 14.3105V8.89844L9.33008 3.85156ZM18.9922 7.27148C19.0918 7.33789 19.1582 7.4707 19.1582 7.57031C19.1582 7.66992 19.125 7.76953 19.0586 7.83594L18.1953 8.86523C18.1289 8.96484 18.0293 8.99805 17.8965 8.99805C17.7969 8.99805 17.6973 8.96484 17.6309 8.89844L9.82812 2.49023C9.76172 2.42383 9.66211 2.39062 9.5957 2.39062C9.49609 2.39062 9.39648 2.42383 9.33008 2.49023L1.52734 8.89844C1.46094 8.96484 1.36133 8.99805 1.26172 8.99805C1.12891 8.99805 1.0293 8.96484 0.962891 8.86523L0.0996094 7.83594C0.0664062 7.76953 0 7.66992 0 7.57031C0 7.4707 0.0664062 7.33789 0.166016 7.27148L8.56641 0.332031C8.83203 0.132812 9.19727 0 9.5957 0C9.96094 0 10.3262 0.132812 10.5918 0.332031L13.5801 2.78906V0.398438C13.5801 0.166016 13.7461 0 13.9785 0H15.8379C16.0371 0 16.2363 0.166016 16.2363 0.398438V4.98047L18.9922 7.27148Z" fill="#8F8F8F"/>
</svg>
