<svg width="277" height="41" viewBox="0 0 277 41" fill="none" xmlns="http://www.w3.org/2000/svg">
<g clip-path="url(#clip0_0_382)">
<path d="M84.1089 8.87108H96.6858V40.5498H105.093V8.87108H117.773V0.409668H84.1089V8.87108Z" fill="#333333"/>
<path d="M156.631 4.57359C155.4 3.30094 153.897 2.30346 152.188 1.58114C150.479 0.858825 148.668 0.480469 146.754 0.480469H120.301V40.5862H128.572V28.41H138.278L148.428 40.6894H159.365L148.941 28.2724C150.103 28.1004 151.197 27.7909 152.256 27.3437C153.931 26.6214 155.4 25.6239 156.665 24.3513C157.93 23.0786 158.955 21.5652 159.638 19.8798C160.356 18.1944 160.732 16.3714 160.732 14.4108C160.732 12.5191 160.356 10.6961 159.604 9.01067C158.852 7.32527 157.861 5.81185 156.631 4.57359ZM151.88 16.5434C151.573 17.1969 151.197 17.816 150.684 18.332C150.206 18.8479 149.59 19.2263 148.907 19.5358C148.223 19.8454 147.506 19.983 146.72 19.983H128.572V8.90748H146.72C147.506 8.90748 148.223 9.04507 148.907 9.35463C149.59 9.6298 150.206 10.0426 150.684 10.5241C151.197 11.04 151.573 11.6248 151.88 12.2783C152.154 12.9318 152.29 13.6197 152.29 14.4108C152.29 15.1676 152.154 15.8899 151.88 16.5434Z" fill="#333333"/>
<path d="M172.488 31.0233C171.77 30.3009 171.394 29.441 171.394 28.3748V24.7976H201.059V16.3362H171.394V12.0023C171.531 11.0736 171.975 10.3513 172.659 9.73214C173.342 9.11301 174.128 8.83785 175.085 8.83785H201.401V0.342041H175.085C173.479 0.342041 171.941 0.651605 170.506 1.23634C169.07 1.82107 167.806 2.64657 166.746 3.67845C165.687 4.74473 164.798 5.94858 164.149 7.29003C163.465 8.66587 163.089 10.1793 163.021 11.7959C163.021 12.587 163.021 13.4125 163.021 14.2036C163.021 15.9922 163.021 17.7808 163.021 19.5694C163.021 21.4612 163.021 23.3186 163.021 25.2103C163.021 27.2397 162.918 29.2691 163.397 31.2296C163.944 33.3966 165.037 35.3915 166.609 36.9738C167.669 38.04 168.968 38.9343 170.437 39.5535C171.907 40.1726 173.513 40.5165 175.154 40.5165H201.469V32.0895H175.154C174.094 32.0895 173.24 31.7456 172.488 31.0233Z" fill="#333333"/>
<path d="M237.937 6.22541C236.16 4.43682 234.006 2.99219 231.614 1.92591C226.761 -0.172244 220.883 -0.172244 216.03 1.92591C213.603 2.95779 211.484 4.40242 209.707 6.22541C207.896 8.014 206.46 10.1809 205.435 12.5887C204.41 15.0308 203.863 17.6793 203.863 20.4309V40.6558H212.27V29.2707H235.408V40.6558H243.815V20.4309C243.815 17.6793 243.302 15.0308 242.243 12.5887C241.149 10.1809 239.714 8.014 237.937 6.22541ZM235.373 20.8093H212.236V20.3622C212.236 18.7799 212.544 17.2665 213.159 15.8907C213.774 14.4804 214.594 13.2422 215.654 12.2103C216.679 11.1784 217.943 10.3185 219.311 9.7338C222.079 8.52994 225.496 8.52994 228.299 9.7338C229.7 10.3529 230.965 11.1784 231.99 12.2103C233.015 13.2422 233.87 14.4804 234.485 15.8907C235.1 17.2665 235.408 18.7799 235.408 20.3622V20.8093H235.373Z" fill="#333333"/>
<path d="M243.336 0.409668V8.87108H255.913V40.5498H264.32V8.87108H277V0.409668H243.336Z" fill="#333333"/>
<path d="M30.9629 0V1.7198C31.5439 2.33893 32.0907 2.99245 32.5692 3.68037C33.0818 4.36829 33.5261 5.125 33.9021 5.88171C34.7223 7.53272 35.5425 9.18373 36.3628 10.8347C36.0552 9.76846 36.1235 8.59899 36.5336 7.53272C37.183 5.77852 38.1399 4.19631 39.3019 2.75168C39.7804 2.13255 40.3272 1.58221 40.9082 1.03188V0H30.9629Z" fill="#127BF1"/>
<path d="M29.8019 37.1477C28.8449 35.8062 28.1272 34.396 27.4779 33.0545L27.2386 32.573C27.1019 32.3322 26.9994 32.1258 26.8969 31.8851C26.6576 31.4035 26.3842 30.922 26.145 30.4404C24.5045 31.4035 22.5564 31.9539 20.4375 31.9539C14.6275 31.9539 9.91117 27.7919 9.91117 22.6669V0H0V22.6669C0 32.7794 9.15928 41 20.4375 41C24.1969 41 27.7513 40.0713 30.793 38.4547C30.417 38.0419 30.1094 37.5948 29.8019 37.1477Z" fill="#127BF1"/>
<path d="M60.1516 0.068792C58.0668 0.068792 55.982 0.068792 53.8973 0.068792C48.1214 0.068792 42.6532 3.78356 40.7052 8.97735C40.6026 9.25252 40.5685 9.63087 40.7052 9.87164C42.2089 12.8985 43.7127 15.9253 45.2506 18.9866C45.2848 19.0554 45.3873 19.1242 45.6266 19.3305C46.1392 18.3331 46.6177 17.4388 47.0962 16.5101C48.0189 14.6871 48.8733 12.8297 49.8303 11.0067C50.7189 9.28691 52.2568 8.25503 54.2732 8.15185C55.0934 8.11745 55.9479 8.08305 56.7681 8.08305C57.8959 8.08305 59.0579 8.11745 60.1857 8.11745C60.3566 8.11745 60.5275 8.22064 60.8693 8.32383C60.3224 9.49329 59.844 10.594 59.2971 11.6602C56.3921 17.4732 53.453 23.2517 50.5138 29.0646C49.5227 31.0596 47.848 32.1602 45.5582 32.1602H45.524C43.2 32.1602 41.4912 31.0252 40.4659 29.0302C36.9116 21.9446 33.3572 14.8247 29.8029 7.7047C27.5814 3.09564 22.4549 0 17.0551 0C16.8158 0 16.5766 0 16.3374 0.034396C16.2348 0.034396 16.1323 0.103188 15.9272 0.17198C16.8842 2.09815 17.8411 4.02433 18.7981 5.9505C22.9676 14.2055 27.1371 22.4606 31.2725 30.75C32.3319 32.917 33.3572 35.0839 35.2028 36.7693C38.2103 39.521 41.6279 40.8968 45.3532 40.8968C46.7544 40.8968 48.1898 40.6904 49.6936 40.3121C53.7947 39.2802 56.8023 36.8381 58.6136 33.2265C63.3641 23.8708 68.0121 14.4807 72.6943 5.0906C73.4804 3.50839 74.2664 1.92617 75.1208 0.17198C74.5398 0.137584 74.1639 0.103188 73.8221 0.103188C69.2767 0.068792 64.7312 0.068792 60.1516 0.068792Z" fill="#127BF1"/>
</g>
<defs>
<clipPath id="clip0_0_382">
<rect width="277" height="41" fill="white"/>
</clipPath>
</defs>
</svg>
