<svg width="60" height="60" viewBox="0 0 60 60" fill="none" xmlns="http://www.w3.org/2000/svg">
<path d="M56.7569 4.55679C56.7201 4.66443 56.6883 4.77427 56.6449 4.87934C56.5351 5.14367 56.3468 5.34284 56.0896 5.45816C54.8385 6.01978 53.6333 6.67366 52.4066 7.28396C50.5396 8.21352 48.6806 9.15956 46.815 10.0924C46.664 10.1678 46.6439 10.218 46.7406 10.3652C48.8014 13.5071 50.3988 16.871 51.5193 20.4614C51.9976 21.994 52.369 23.5525 52.6277 25.1371C52.9284 26.9801 53.074 28.8359 53.0273 30.7042C52.9776 32.6742 52.7376 34.6212 52.3223 36.5477C51.5083 40.3256 50.1083 43.8772 48.238 47.2488C47.7717 48.0894 47.2792 48.9135 46.7432 49.7105C46.6366 49.869 46.6709 49.9159 46.8253 49.9935C49.8281 51.5004 52.8284 53.0121 55.828 54.5252C56.5957 54.9126 56.7467 55.8722 56.1363 56.447C55.778 56.7845 55.2719 56.8537 54.8009 56.6187C53.8285 56.1332 52.8587 55.6433 51.8878 55.155C49.619 54.0134 47.3503 52.8715 45.0823 51.7285C45.0038 51.689 44.9283 51.671 44.8393 51.6762C44.4175 51.6996 44.0837 51.529 43.8388 51.1885C43.7826 51.1101 43.717 51.0589 43.6341 51.0172C39.8735 49.1273 36.1146 47.2341 32.3528 45.3468C26.0472 42.1829 19.7398 39.0219 13.4327 35.8605C10.285 34.2829 7.13654 32.7068 3.98811 31.1299C3.23174 30.751 3.01501 29.9313 3.50649 29.3085C3.63017 29.1518 3.79254 29.0486 3.96804 28.9607C7.33576 27.2748 10.7038 25.5888 14.0712 23.9018C17.2627 22.303 20.4534 20.7027 23.6446 19.1039C25.8801 17.9836 28.1175 16.8669 30.3515 15.7441C34.9733 13.4211 39.5867 11.0809 44.2165 8.77404C47.744 7.01634 51.2566 5.22898 54.7826 3.46798C55.0782 3.32043 55.3894 3.20804 55.7258 3.25344C56.2476 3.3241 56.6099 3.67776 56.7256 4.2024C56.7303 4.224 56.7463 4.2434 56.7573 4.26354V4.55606L56.7569 4.55679ZM27.082 19.995C27.0207 20.0203 26.9579 20.0415 26.8988 20.0712C20.3447 23.3588 13.791 26.6473 7.23725 29.9357C7.1785 29.965 7.12049 29.9961 7.03146 30.0426C13.7264 33.4013 20.394 36.7465 27.0615 40.0916C27.0539 39.9939 27.0225 39.9353 26.9889 39.8782C26.4872 39.0233 26.0414 38.1406 25.6535 37.2279C24.7862 35.1861 24.2356 33.0696 24.1196 30.8447C24.0503 29.5169 24.1543 28.204 24.4024 26.9017C24.8286 24.6655 25.6586 22.5798 26.7594 20.5962C26.8696 20.3974 27.0229 20.2202 27.0791 19.9924C27.0831 19.9888 27.0874 19.9848 27.0915 19.9811C27.0882 19.9859 27.0849 19.9906 27.0816 19.9954L27.082 19.995ZM50.7118 29.8731C50.7173 29.079 50.6607 28.1377 50.5673 27.1972C50.4436 25.9491 50.2335 24.716 49.9558 23.4943C49.4512 21.2735 48.7204 19.1281 47.7984 17.0478C46.915 15.054 45.8806 13.1436 44.6587 11.3368C44.5915 11.2376 44.5481 11.2131 44.4332 11.2713C40.6546 13.1773 36.8743 15.0789 33.0939 16.9812C32.9552 17.051 32.9356 17.1485 33.0351 17.2737C34.4322 19.0424 35.598 20.9509 36.4802 23.0293C37.2085 24.7446 37.7043 26.5243 37.8999 28.3804C38.0221 29.5407 38.0119 30.7012 37.8773 31.8625C37.7404 33.0447 37.4858 34.1987 37.1194 35.3289C36.2222 38.0989 34.7949 40.5778 32.9975 42.851C32.9045 42.9685 32.9082 43.0114 33.0468 43.0809C36.8349 44.9822 40.6211 46.8867 44.4051 48.7963C44.5412 48.8648 44.5963 48.8377 44.6747 48.7216C45.9138 46.8889 46.9606 44.9496 47.8487 42.9246C48.7923 40.7733 49.5326 38.5532 50.0288 36.2533C50.4717 34.2002 50.7188 32.1265 50.7111 29.8734L50.7118 29.8731ZM31.0382 41.4689C31.0762 41.4287 31.1024 41.4034 31.1254 41.3756C32.3831 39.8793 33.4482 38.2589 34.2439 36.4675C35.3239 34.0358 35.838 31.5019 35.6173 28.8326C35.5126 27.5658 35.251 26.3328 34.8409 25.133C34.0345 22.7738 32.7757 20.6738 31.1809 18.7689C31.0696 18.636 31.0189 18.6305 30.9061 18.7656C29.7075 20.2 28.6932 21.7516 27.9124 23.4544C27.0579 25.3183 26.5332 27.2686 26.4318 29.3214C26.3438 31.1003 26.5806 32.8415 27.1133 34.5414C27.9241 37.1291 29.2858 39.4019 31.0382 41.4686V41.4689Z" fill="white"/>
</svg>
