<svg width="24" height="24" viewBox="0 0 24 24" fill="none" xmlns="http://www.w3.org/2000/svg">
<path fill-rule="evenodd" clip-rule="evenodd" d="M12 3.75C10.2051 3.75 8.75 5.20507 8.75 7C8.75 8.79493 10.2051 10.25 12 10.25C13.7949 10.25 15.25 8.79492 15.25 7C15.25 5.20508 13.7949 3.75 12 3.75ZM7.25 7C7.25 4.37665 9.37665 2.25 12 2.25C14.6233 2.25 16.75 4.37664 16.75 7C16.75 9.62336 14.6233 11.75 12 11.75C9.37665 11.75 7.25 9.62335 7.25 7ZM10 14.75C7.1005 14.75 4.75 17.1005 4.75 20V21C4.75 21.4142 4.41421 21.75 4 21.75C3.58579 21.75 3.25 21.4142 3.25 21V20C3.25 16.2721 6.27208 13.25 10 13.25H14C17.7279 13.25 20.75 16.2721 20.75 20V21C20.75 21.4142 20.4142 21.75 20 21.75C19.5858 21.75 19.25 21.4142 19.25 21V20C19.25 17.1005 16.8995 14.75 14 14.75H10Z" fill="#127BF1"/>
</svg>
