<svg width="48" height="48" viewBox="0 0 48 48" fill="none" xmlns="http://www.w3.org/2000/svg">
<mask id="mask0_0_690" style="mask-type:luminance" maskUnits="userSpaceOnUse" x="1" y="4" width="46" height="46">
<path d="M24 22.5C25.0342 22.5 26.0582 22.2963 27.0136 21.9006C27.9691 21.5048 28.8372 20.9247 29.5685 20.1935C30.2997 19.4622 30.8798 18.5941 31.2756 17.6386C31.6713 16.6832 31.875 15.6592 31.875 14.625C31.875 13.5908 31.6713 12.5668 31.2756 11.6114C30.8798 10.6559 30.2997 9.7878 29.5685 9.05653C28.8372 8.32527 27.9691 7.7452 27.0136 7.34945C26.0582 6.95369 25.0342 6.75 24 6.75C21.9114 6.75 19.9084 7.57969 18.4315 9.05653C16.9547 10.5334 16.125 12.5364 16.125 14.625C16.125 16.7136 16.9547 18.7166 18.4315 20.1935C19.9084 21.6703 21.9114 22.5 24 22.5ZM3.75 45.9V47.25H44.25V45.9C44.25 40.86 44.25 38.34 43.269 36.414C42.4062 34.7206 41.0294 33.3438 39.336 32.481C37.41 31.5 34.89 31.5 29.85 31.5H18.15C13.11 31.5 10.59 31.5 8.664 32.481C6.97062 33.3438 5.59385 34.7206 4.731 36.414C3.75 38.34 3.75 40.86 3.75 45.9Z" fill="white" stroke="white" stroke-width="4" stroke-linecap="round" stroke-linejoin="round"/>
</mask>
<g mask="url(#mask0_0_690)">
<path d="M-3 0H51V54H-3V0Z" fill="white"/>
</g>
</svg>
